<mxfile host="app.diagrams.net" modified="2023-01-18T20:58:52.158Z" agent="5.0 (Windows NT 10.0; Win64; x64) AppleWebKit/537.36 (KHTML, like Gecko) Chrome/109.0.0.0 Safari/537.36" etag="Vu_7YIa_vR5OtG7EzQ5m" version="20.8.5" type="github">
  <diagram id="HLguGYN4r0BO6zbHhLUL" name="Page-1">
    <mxGraphModel dx="1434" dy="796" grid="1" gridSize="10" guides="1" tooltips="1" connect="1" arrows="1" fold="1" page="1" pageScale="1" pageWidth="1100" pageHeight="850" background="#E8E8E8" math="0" shadow="0">
      <root>
        <mxCell id="0" />
        <mxCell id="1" parent="0" />
        <mxCell id="Prwd3wWh5Zi84yeX747r-4" style="edgeStyle=orthogonalEdgeStyle;rounded=0;orthogonalLoop=1;jettySize=auto;html=1;exitX=1;exitY=0.5;exitDx=0;exitDy=0;entryX=1;entryY=0.5;entryDx=0;entryDy=0;" edge="1" parent="1" source="9vL8RQ6ZQGDi2CTPwXc4-53" target="9vL8RQ6ZQGDi2CTPwXc4-203">
          <mxGeometry relative="1" as="geometry" />
        </mxCell>
        <mxCell id="9vL8RQ6ZQGDi2CTPwXc4-53" value="REGIONS" style="shape=table;startSize=30;container=1;collapsible=1;childLayout=tableLayout;fixedRows=1;rowLines=0;fontStyle=1;align=center;resizeLast=1;swimlaneFillColor=none;fillColor=#bac8d3;strokeColor=#23445d;" parent="1" vertex="1">
          <mxGeometry x="120" y="380" width="180" height="90" as="geometry">
            <mxRectangle x="40" y="80" width="100" height="30" as="alternateBounds" />
          </mxGeometry>
        </mxCell>
        <mxCell id="9vL8RQ6ZQGDi2CTPwXc4-57" value="" style="shape=tableRow;horizontal=0;startSize=0;swimlaneHead=0;swimlaneBody=0;collapsible=0;dropTarget=0;points=[[0,0.5],[1,0.5]];portConstraint=eastwest;top=0;left=0;right=0;bottom=0;perimeterSpacing=1;swimlaneFillColor=none;" parent="9vL8RQ6ZQGDi2CTPwXc4-53" vertex="1">
          <mxGeometry y="30" width="180" height="30" as="geometry" />
        </mxCell>
        <mxCell id="9vL8RQ6ZQGDi2CTPwXc4-58" value="PK" style="shape=partialRectangle;connectable=0;top=0;left=0;bottom=0;right=0;editable=1;overflow=hidden;labelBorderColor=none;perimeterSpacing=0;swimlaneFillColor=none;fillColor=#b0e3e6;strokeColor=#0e8088;" parent="9vL8RQ6ZQGDi2CTPwXc4-57" vertex="1">
          <mxGeometry width="30" height="30" as="geometry">
            <mxRectangle width="30" height="30" as="alternateBounds" />
          </mxGeometry>
        </mxCell>
        <mxCell id="9vL8RQ6ZQGDi2CTPwXc4-59" value="REGION_ID" style="shape=partialRectangle;connectable=0;top=0;left=0;bottom=0;right=0;align=left;spacingLeft=6;overflow=hidden;swimlaneFillColor=none;fillColor=#b0e3e6;strokeColor=#0e8088;" parent="9vL8RQ6ZQGDi2CTPwXc4-57" vertex="1">
          <mxGeometry x="30" width="150" height="30" as="geometry">
            <mxRectangle width="150" height="30" as="alternateBounds" />
          </mxGeometry>
        </mxCell>
        <mxCell id="9vL8RQ6ZQGDi2CTPwXc4-60" value="" style="shape=tableRow;horizontal=0;startSize=0;swimlaneHead=0;swimlaneBody=0;collapsible=0;dropTarget=0;points=[[0,0.5],[1,0.5]];portConstraint=eastwest;top=0;left=0;right=0;bottom=0;swimlaneFillColor=none;" parent="9vL8RQ6ZQGDi2CTPwXc4-53" vertex="1">
          <mxGeometry y="60" width="180" height="30" as="geometry" />
        </mxCell>
        <mxCell id="9vL8RQ6ZQGDi2CTPwXc4-61" value="" style="shape=partialRectangle;connectable=0;top=0;left=0;bottom=0;right=0;editable=1;overflow=hidden;swimlaneFillColor=none;" parent="9vL8RQ6ZQGDi2CTPwXc4-60" vertex="1">
          <mxGeometry width="30" height="30" as="geometry">
            <mxRectangle width="30" height="30" as="alternateBounds" />
          </mxGeometry>
        </mxCell>
        <mxCell id="9vL8RQ6ZQGDi2CTPwXc4-62" value="REGION_NAME" style="shape=partialRectangle;connectable=0;top=0;left=0;bottom=0;right=0;align=left;spacingLeft=6;overflow=hidden;swimlaneFillColor=none;" parent="9vL8RQ6ZQGDi2CTPwXc4-60" vertex="1">
          <mxGeometry x="30" width="150" height="30" as="geometry">
            <mxRectangle width="150" height="30" as="alternateBounds" />
          </mxGeometry>
        </mxCell>
        <mxCell id="9vL8RQ6ZQGDi2CTPwXc4-69" value="LOCATIONS" style="shape=table;startSize=30;container=1;collapsible=1;childLayout=tableLayout;fixedRows=1;rowLines=0;fontStyle=1;align=center;resizeLast=1;swimlaneFillColor=none;fillColor=#bac8d3;strokeColor=#23445d;" parent="1" vertex="1">
          <mxGeometry x="120" y="140" width="180" height="210" as="geometry" />
        </mxCell>
        <mxCell id="9vL8RQ6ZQGDi2CTPwXc4-73" value="" style="shape=tableRow;horizontal=0;startSize=0;swimlaneHead=0;swimlaneBody=0;collapsible=0;dropTarget=0;points=[[0,0.5],[1,0.5]];portConstraint=eastwest;top=0;left=0;right=0;bottom=0;swimlaneFillColor=none;" parent="9vL8RQ6ZQGDi2CTPwXc4-69" vertex="1">
          <mxGeometry y="30" width="180" height="30" as="geometry" />
        </mxCell>
        <mxCell id="9vL8RQ6ZQGDi2CTPwXc4-74" value="PK" style="shape=partialRectangle;connectable=0;top=0;left=0;bottom=0;right=0;editable=1;overflow=hidden;swimlaneFillColor=none;fillColor=#b0e3e6;strokeColor=#0e8088;" parent="9vL8RQ6ZQGDi2CTPwXc4-73" vertex="1">
          <mxGeometry width="30" height="30" as="geometry">
            <mxRectangle width="30" height="30" as="alternateBounds" />
          </mxGeometry>
        </mxCell>
        <mxCell id="9vL8RQ6ZQGDi2CTPwXc4-75" value="LOCATION_ID" style="shape=partialRectangle;connectable=0;top=0;left=0;bottom=0;right=0;align=left;spacingLeft=6;overflow=hidden;swimlaneFillColor=none;fillColor=#b0e3e6;strokeColor=#0e8088;" parent="9vL8RQ6ZQGDi2CTPwXc4-73" vertex="1">
          <mxGeometry x="30" width="150" height="30" as="geometry">
            <mxRectangle width="150" height="30" as="alternateBounds" />
          </mxGeometry>
        </mxCell>
        <mxCell id="9vL8RQ6ZQGDi2CTPwXc4-76" value="" style="shape=tableRow;horizontal=0;startSize=0;swimlaneHead=0;swimlaneBody=0;collapsible=0;dropTarget=0;points=[[0,0.5],[1,0.5]];portConstraint=eastwest;top=0;left=0;right=0;bottom=0;swimlaneFillColor=none;" parent="9vL8RQ6ZQGDi2CTPwXc4-69" vertex="1">
          <mxGeometry y="60" width="180" height="30" as="geometry" />
        </mxCell>
        <mxCell id="9vL8RQ6ZQGDi2CTPwXc4-77" value="" style="shape=partialRectangle;connectable=0;top=0;left=0;bottom=0;right=0;editable=1;overflow=hidden;swimlaneFillColor=none;" parent="9vL8RQ6ZQGDi2CTPwXc4-76" vertex="1">
          <mxGeometry width="30" height="30" as="geometry">
            <mxRectangle width="30" height="30" as="alternateBounds" />
          </mxGeometry>
        </mxCell>
        <mxCell id="9vL8RQ6ZQGDi2CTPwXc4-78" value="STREET_ADDRESS" style="shape=partialRectangle;connectable=0;top=0;left=0;bottom=0;right=0;align=left;spacingLeft=6;overflow=hidden;swimlaneFillColor=none;" parent="9vL8RQ6ZQGDi2CTPwXc4-76" vertex="1">
          <mxGeometry x="30" width="150" height="30" as="geometry">
            <mxRectangle width="150" height="30" as="alternateBounds" />
          </mxGeometry>
        </mxCell>
        <mxCell id="9vL8RQ6ZQGDi2CTPwXc4-79" value="" style="shape=tableRow;horizontal=0;startSize=0;swimlaneHead=0;swimlaneBody=0;collapsible=0;dropTarget=0;points=[[0,0.5],[1,0.5]];portConstraint=eastwest;top=0;left=0;right=0;bottom=0;swimlaneFillColor=none;" parent="9vL8RQ6ZQGDi2CTPwXc4-69" vertex="1">
          <mxGeometry y="90" width="180" height="30" as="geometry" />
        </mxCell>
        <mxCell id="9vL8RQ6ZQGDi2CTPwXc4-80" value="" style="shape=partialRectangle;connectable=0;top=0;left=0;bottom=0;right=0;editable=1;overflow=hidden;swimlaneFillColor=none;" parent="9vL8RQ6ZQGDi2CTPwXc4-79" vertex="1">
          <mxGeometry width="30" height="30" as="geometry">
            <mxRectangle width="30" height="30" as="alternateBounds" />
          </mxGeometry>
        </mxCell>
        <mxCell id="9vL8RQ6ZQGDi2CTPwXc4-81" value="POSTAL_CODE" style="shape=partialRectangle;connectable=0;top=0;left=0;bottom=0;right=0;align=left;spacingLeft=6;overflow=hidden;swimlaneFillColor=none;" parent="9vL8RQ6ZQGDi2CTPwXc4-79" vertex="1">
          <mxGeometry x="30" width="150" height="30" as="geometry">
            <mxRectangle width="150" height="30" as="alternateBounds" />
          </mxGeometry>
        </mxCell>
        <mxCell id="9vL8RQ6ZQGDi2CTPwXc4-82" value="" style="shape=tableRow;horizontal=0;startSize=0;swimlaneHead=0;swimlaneBody=0;collapsible=0;dropTarget=0;points=[[0,0.5],[1,0.5]];portConstraint=eastwest;top=0;left=0;right=0;bottom=0;swimlaneFillColor=none;" parent="9vL8RQ6ZQGDi2CTPwXc4-69" vertex="1">
          <mxGeometry y="120" width="180" height="30" as="geometry" />
        </mxCell>
        <mxCell id="9vL8RQ6ZQGDi2CTPwXc4-83" value="" style="shape=partialRectangle;connectable=0;top=0;left=0;bottom=0;right=0;editable=1;overflow=hidden;swimlaneFillColor=none;" parent="9vL8RQ6ZQGDi2CTPwXc4-82" vertex="1">
          <mxGeometry width="30" height="30" as="geometry">
            <mxRectangle width="30" height="30" as="alternateBounds" />
          </mxGeometry>
        </mxCell>
        <mxCell id="9vL8RQ6ZQGDi2CTPwXc4-84" value="CITY" style="shape=partialRectangle;connectable=0;top=0;left=0;bottom=0;right=0;align=left;spacingLeft=6;overflow=hidden;swimlaneFillColor=none;" parent="9vL8RQ6ZQGDi2CTPwXc4-82" vertex="1">
          <mxGeometry x="30" width="150" height="30" as="geometry">
            <mxRectangle width="150" height="30" as="alternateBounds" />
          </mxGeometry>
        </mxCell>
        <mxCell id="9vL8RQ6ZQGDi2CTPwXc4-85" value="" style="shape=tableRow;horizontal=0;startSize=0;swimlaneHead=0;swimlaneBody=0;collapsible=0;dropTarget=0;points=[[0,0.5],[1,0.5]];portConstraint=eastwest;top=0;left=0;right=0;bottom=0;swimlaneFillColor=none;" parent="9vL8RQ6ZQGDi2CTPwXc4-69" vertex="1">
          <mxGeometry y="150" width="180" height="30" as="geometry" />
        </mxCell>
        <mxCell id="9vL8RQ6ZQGDi2CTPwXc4-86" value="" style="shape=partialRectangle;connectable=0;top=0;left=0;bottom=0;right=0;editable=1;overflow=hidden;swimlaneFillColor=none;" parent="9vL8RQ6ZQGDi2CTPwXc4-85" vertex="1">
          <mxGeometry width="30" height="30" as="geometry">
            <mxRectangle width="30" height="30" as="alternateBounds" />
          </mxGeometry>
        </mxCell>
        <mxCell id="9vL8RQ6ZQGDi2CTPwXc4-87" value="STATE_PROVINCE" style="shape=partialRectangle;connectable=0;top=0;left=0;bottom=0;right=0;align=left;spacingLeft=6;overflow=hidden;swimlaneFillColor=none;" parent="9vL8RQ6ZQGDi2CTPwXc4-85" vertex="1">
          <mxGeometry x="30" width="150" height="30" as="geometry">
            <mxRectangle width="150" height="30" as="alternateBounds" />
          </mxGeometry>
        </mxCell>
        <mxCell id="9vL8RQ6ZQGDi2CTPwXc4-88" value="" style="shape=tableRow;horizontal=0;startSize=0;swimlaneHead=0;swimlaneBody=0;collapsible=0;dropTarget=0;points=[[0,0.5],[1,0.5]];portConstraint=eastwest;top=0;left=0;right=0;bottom=0;swimlaneFillColor=none;" parent="9vL8RQ6ZQGDi2CTPwXc4-69" vertex="1">
          <mxGeometry y="180" width="180" height="30" as="geometry" />
        </mxCell>
        <mxCell id="9vL8RQ6ZQGDi2CTPwXc4-89" value="" style="shape=partialRectangle;connectable=0;top=0;left=0;bottom=0;right=0;editable=1;overflow=hidden;swimlaneFillColor=none;" parent="9vL8RQ6ZQGDi2CTPwXc4-88" vertex="1">
          <mxGeometry width="30" height="30" as="geometry">
            <mxRectangle width="30" height="30" as="alternateBounds" />
          </mxGeometry>
        </mxCell>
        <mxCell id="9vL8RQ6ZQGDi2CTPwXc4-90" value="COUNTRY_ID" style="shape=partialRectangle;connectable=0;top=0;left=0;bottom=0;right=0;align=left;spacingLeft=6;overflow=hidden;swimlaneFillColor=none;" parent="9vL8RQ6ZQGDi2CTPwXc4-88" vertex="1">
          <mxGeometry x="30" width="150" height="30" as="geometry">
            <mxRectangle width="150" height="30" as="alternateBounds" />
          </mxGeometry>
        </mxCell>
        <mxCell id="9vL8RQ6ZQGDi2CTPwXc4-91" value="DEPARTMENTS" style="shape=table;startSize=30;container=1;collapsible=1;childLayout=tableLayout;fixedRows=1;rowLines=0;fontStyle=1;align=center;resizeLast=1;swimlaneFillColor=none;fillColor=#bac8d3;strokeColor=#23445d;" parent="1" vertex="1">
          <mxGeometry x="460" y="160" width="180" height="150" as="geometry" />
        </mxCell>
        <mxCell id="9vL8RQ6ZQGDi2CTPwXc4-95" value="" style="shape=tableRow;horizontal=0;startSize=0;swimlaneHead=0;swimlaneBody=0;collapsible=0;dropTarget=0;points=[[0,0.5],[1,0.5]];portConstraint=eastwest;top=0;left=0;right=0;bottom=0;swimlaneFillColor=none;" parent="9vL8RQ6ZQGDi2CTPwXc4-91" vertex="1">
          <mxGeometry y="30" width="180" height="30" as="geometry" />
        </mxCell>
        <mxCell id="9vL8RQ6ZQGDi2CTPwXc4-96" value="PK" style="shape=partialRectangle;connectable=0;top=0;left=0;bottom=0;right=0;editable=1;overflow=hidden;swimlaneFillColor=none;fillColor=#b0e3e6;strokeColor=#0e8088;" parent="9vL8RQ6ZQGDi2CTPwXc4-95" vertex="1">
          <mxGeometry width="30" height="30" as="geometry">
            <mxRectangle width="30" height="30" as="alternateBounds" />
          </mxGeometry>
        </mxCell>
        <mxCell id="9vL8RQ6ZQGDi2CTPwXc4-97" value="DEPARTMENT_ID" style="shape=partialRectangle;connectable=0;top=0;left=0;bottom=0;right=0;align=left;spacingLeft=6;overflow=hidden;swimlaneFillColor=none;fillColor=#b0e3e6;strokeColor=#0e8088;" parent="9vL8RQ6ZQGDi2CTPwXc4-95" vertex="1">
          <mxGeometry x="30" width="150" height="30" as="geometry">
            <mxRectangle width="150" height="30" as="alternateBounds" />
          </mxGeometry>
        </mxCell>
        <mxCell id="9vL8RQ6ZQGDi2CTPwXc4-98" value="" style="shape=tableRow;horizontal=0;startSize=0;swimlaneHead=0;swimlaneBody=0;collapsible=0;dropTarget=0;points=[[0,0.5],[1,0.5]];portConstraint=eastwest;top=0;left=0;right=0;bottom=0;swimlaneFillColor=none;" parent="9vL8RQ6ZQGDi2CTPwXc4-91" vertex="1">
          <mxGeometry y="60" width="180" height="30" as="geometry" />
        </mxCell>
        <mxCell id="9vL8RQ6ZQGDi2CTPwXc4-99" value="" style="shape=partialRectangle;connectable=0;top=0;left=0;bottom=0;right=0;editable=1;overflow=hidden;swimlaneFillColor=none;" parent="9vL8RQ6ZQGDi2CTPwXc4-98" vertex="1">
          <mxGeometry width="30" height="30" as="geometry">
            <mxRectangle width="30" height="30" as="alternateBounds" />
          </mxGeometry>
        </mxCell>
        <mxCell id="9vL8RQ6ZQGDi2CTPwXc4-100" value="DEPARTMENT_NAME" style="shape=partialRectangle;connectable=0;top=0;left=0;bottom=0;right=0;align=left;spacingLeft=6;overflow=hidden;swimlaneFillColor=none;" parent="9vL8RQ6ZQGDi2CTPwXc4-98" vertex="1">
          <mxGeometry x="30" width="150" height="30" as="geometry">
            <mxRectangle width="150" height="30" as="alternateBounds" />
          </mxGeometry>
        </mxCell>
        <mxCell id="9vL8RQ6ZQGDi2CTPwXc4-101" value="" style="shape=tableRow;horizontal=0;startSize=0;swimlaneHead=0;swimlaneBody=0;collapsible=0;dropTarget=0;points=[[0,0.5],[1,0.5]];portConstraint=eastwest;top=0;left=0;right=0;bottom=0;swimlaneFillColor=none;" parent="9vL8RQ6ZQGDi2CTPwXc4-91" vertex="1">
          <mxGeometry y="90" width="180" height="30" as="geometry" />
        </mxCell>
        <mxCell id="9vL8RQ6ZQGDi2CTPwXc4-102" value="" style="shape=partialRectangle;connectable=0;top=0;left=0;bottom=0;right=0;editable=1;overflow=hidden;swimlaneFillColor=none;" parent="9vL8RQ6ZQGDi2CTPwXc4-101" vertex="1">
          <mxGeometry width="30" height="30" as="geometry">
            <mxRectangle width="30" height="30" as="alternateBounds" />
          </mxGeometry>
        </mxCell>
        <mxCell id="9vL8RQ6ZQGDi2CTPwXc4-103" value="MANAGER_ID" style="shape=partialRectangle;connectable=0;top=0;left=0;bottom=0;right=0;align=left;spacingLeft=6;overflow=hidden;swimlaneFillColor=none;" parent="9vL8RQ6ZQGDi2CTPwXc4-101" vertex="1">
          <mxGeometry x="30" width="150" height="30" as="geometry">
            <mxRectangle width="150" height="30" as="alternateBounds" />
          </mxGeometry>
        </mxCell>
        <mxCell id="9vL8RQ6ZQGDi2CTPwXc4-104" value="" style="shape=tableRow;horizontal=0;startSize=0;swimlaneHead=0;swimlaneBody=0;collapsible=0;dropTarget=0;points=[[0,0.5],[1,0.5]];portConstraint=eastwest;top=0;left=0;right=0;bottom=0;swimlaneFillColor=none;" parent="9vL8RQ6ZQGDi2CTPwXc4-91" vertex="1">
          <mxGeometry y="120" width="180" height="30" as="geometry" />
        </mxCell>
        <mxCell id="9vL8RQ6ZQGDi2CTPwXc4-105" value="" style="shape=partialRectangle;connectable=0;top=0;left=0;bottom=0;right=0;editable=1;overflow=hidden;swimlaneFillColor=none;" parent="9vL8RQ6ZQGDi2CTPwXc4-104" vertex="1">
          <mxGeometry width="30" height="30" as="geometry">
            <mxRectangle width="30" height="30" as="alternateBounds" />
          </mxGeometry>
        </mxCell>
        <mxCell id="9vL8RQ6ZQGDi2CTPwXc4-106" value="LOCATION_ID" style="shape=partialRectangle;connectable=0;top=0;left=0;bottom=0;right=0;align=left;spacingLeft=6;overflow=hidden;swimlaneFillColor=none;" parent="9vL8RQ6ZQGDi2CTPwXc4-104" vertex="1">
          <mxGeometry x="30" width="150" height="30" as="geometry">
            <mxRectangle width="150" height="30" as="alternateBounds" />
          </mxGeometry>
        </mxCell>
        <mxCell id="9vL8RQ6ZQGDi2CTPwXc4-107" value="JOBS" style="shape=table;startSize=30;container=1;collapsible=1;childLayout=tableLayout;fixedRows=1;rowLines=0;fontStyle=1;align=center;resizeLast=1;swimlaneFillColor=none;fillColor=#bac8d3;strokeColor=#23445d;" parent="1" vertex="1">
          <mxGeometry x="460" y="425" width="180" height="150" as="geometry" />
        </mxCell>
        <mxCell id="9vL8RQ6ZQGDi2CTPwXc4-111" value="" style="shape=tableRow;horizontal=0;startSize=0;swimlaneHead=0;swimlaneBody=0;collapsible=0;dropTarget=0;points=[[0,0.5],[1,0.5]];portConstraint=eastwest;top=0;left=0;right=0;bottom=0;swimlaneFillColor=none;" parent="9vL8RQ6ZQGDi2CTPwXc4-107" vertex="1">
          <mxGeometry y="30" width="180" height="30" as="geometry" />
        </mxCell>
        <mxCell id="9vL8RQ6ZQGDi2CTPwXc4-112" value="PK" style="shape=partialRectangle;connectable=0;top=0;left=0;bottom=0;right=0;editable=1;overflow=hidden;swimlaneFillColor=none;fillColor=#b0e3e6;strokeColor=#0e8088;" parent="9vL8RQ6ZQGDi2CTPwXc4-111" vertex="1">
          <mxGeometry width="30" height="30" as="geometry">
            <mxRectangle width="30" height="30" as="alternateBounds" />
          </mxGeometry>
        </mxCell>
        <mxCell id="9vL8RQ6ZQGDi2CTPwXc4-113" value="JOB_ID" style="shape=partialRectangle;connectable=0;top=0;left=0;bottom=0;right=0;align=left;spacingLeft=6;overflow=hidden;swimlaneFillColor=none;fillColor=#b0e3e6;strokeColor=#0e8088;" parent="9vL8RQ6ZQGDi2CTPwXc4-111" vertex="1">
          <mxGeometry x="30" width="150" height="30" as="geometry">
            <mxRectangle width="150" height="30" as="alternateBounds" />
          </mxGeometry>
        </mxCell>
        <mxCell id="9vL8RQ6ZQGDi2CTPwXc4-114" value="" style="shape=tableRow;horizontal=0;startSize=0;swimlaneHead=0;swimlaneBody=0;collapsible=0;dropTarget=0;points=[[0,0.5],[1,0.5]];portConstraint=eastwest;top=0;left=0;right=0;bottom=0;swimlaneFillColor=none;" parent="9vL8RQ6ZQGDi2CTPwXc4-107" vertex="1">
          <mxGeometry y="60" width="180" height="30" as="geometry" />
        </mxCell>
        <mxCell id="9vL8RQ6ZQGDi2CTPwXc4-115" value="" style="shape=partialRectangle;connectable=0;top=0;left=0;bottom=0;right=0;editable=1;overflow=hidden;swimlaneFillColor=none;" parent="9vL8RQ6ZQGDi2CTPwXc4-114" vertex="1">
          <mxGeometry width="30" height="30" as="geometry">
            <mxRectangle width="30" height="30" as="alternateBounds" />
          </mxGeometry>
        </mxCell>
        <mxCell id="9vL8RQ6ZQGDi2CTPwXc4-116" value="JOB_TITLE" style="shape=partialRectangle;connectable=0;top=0;left=0;bottom=0;right=0;align=left;spacingLeft=6;overflow=hidden;swimlaneFillColor=none;" parent="9vL8RQ6ZQGDi2CTPwXc4-114" vertex="1">
          <mxGeometry x="30" width="150" height="30" as="geometry">
            <mxRectangle width="150" height="30" as="alternateBounds" />
          </mxGeometry>
        </mxCell>
        <mxCell id="9vL8RQ6ZQGDi2CTPwXc4-117" value="" style="shape=tableRow;horizontal=0;startSize=0;swimlaneHead=0;swimlaneBody=0;collapsible=0;dropTarget=0;points=[[0,0.5],[1,0.5]];portConstraint=eastwest;top=0;left=0;right=0;bottom=0;swimlaneFillColor=none;" parent="9vL8RQ6ZQGDi2CTPwXc4-107" vertex="1">
          <mxGeometry y="90" width="180" height="30" as="geometry" />
        </mxCell>
        <mxCell id="9vL8RQ6ZQGDi2CTPwXc4-118" value="" style="shape=partialRectangle;connectable=0;top=0;left=0;bottom=0;right=0;editable=1;overflow=hidden;swimlaneFillColor=none;" parent="9vL8RQ6ZQGDi2CTPwXc4-117" vertex="1">
          <mxGeometry width="30" height="30" as="geometry">
            <mxRectangle width="30" height="30" as="alternateBounds" />
          </mxGeometry>
        </mxCell>
        <mxCell id="9vL8RQ6ZQGDi2CTPwXc4-119" value="MIN_SALARY" style="shape=partialRectangle;connectable=0;top=0;left=0;bottom=0;right=0;align=left;spacingLeft=6;overflow=hidden;swimlaneFillColor=none;" parent="9vL8RQ6ZQGDi2CTPwXc4-117" vertex="1">
          <mxGeometry x="30" width="150" height="30" as="geometry">
            <mxRectangle width="150" height="30" as="alternateBounds" />
          </mxGeometry>
        </mxCell>
        <mxCell id="9vL8RQ6ZQGDi2CTPwXc4-133" value="" style="shape=tableRow;horizontal=0;startSize=0;swimlaneHead=0;swimlaneBody=0;collapsible=0;dropTarget=0;points=[[0,0.5],[1,0.5]];portConstraint=eastwest;top=0;left=0;right=0;bottom=0;swimlaneFillColor=none;" parent="9vL8RQ6ZQGDi2CTPwXc4-107" vertex="1">
          <mxGeometry y="120" width="180" height="30" as="geometry" />
        </mxCell>
        <mxCell id="9vL8RQ6ZQGDi2CTPwXc4-134" value="" style="shape=partialRectangle;connectable=0;top=0;left=0;bottom=0;right=0;editable=1;overflow=hidden;swimlaneFillColor=none;" parent="9vL8RQ6ZQGDi2CTPwXc4-133" vertex="1">
          <mxGeometry width="30" height="30" as="geometry">
            <mxRectangle width="30" height="30" as="alternateBounds" />
          </mxGeometry>
        </mxCell>
        <mxCell id="9vL8RQ6ZQGDi2CTPwXc4-135" value="MAX_SALARY" style="shape=partialRectangle;connectable=0;top=0;left=0;bottom=0;right=0;align=left;spacingLeft=6;overflow=hidden;swimlaneFillColor=none;" parent="9vL8RQ6ZQGDi2CTPwXc4-133" vertex="1">
          <mxGeometry x="30" width="150" height="30" as="geometry">
            <mxRectangle width="150" height="30" as="alternateBounds" />
          </mxGeometry>
        </mxCell>
        <mxCell id="9vL8RQ6ZQGDi2CTPwXc4-136" value="EMPLOYEES" style="shape=table;startSize=30;container=1;collapsible=1;childLayout=tableLayout;fixedRows=1;rowLines=0;fontStyle=1;align=center;resizeLast=1;swimlaneFillColor=none;fillColor=#bac8d3;strokeColor=#23445d;" parent="1" vertex="1">
          <mxGeometry x="800" y="140" width="180" height="360" as="geometry" />
        </mxCell>
        <mxCell id="Prwd3wWh5Zi84yeX747r-1" style="edgeStyle=orthogonalEdgeStyle;rounded=0;orthogonalLoop=1;jettySize=auto;html=1;exitX=1;exitY=0.5;exitDx=0;exitDy=0;" edge="1" parent="9vL8RQ6ZQGDi2CTPwXc4-136" source="9vL8RQ6ZQGDi2CTPwXc4-140" target="9vL8RQ6ZQGDi2CTPwXc4-167">
          <mxGeometry relative="1" as="geometry" />
        </mxCell>
        <mxCell id="9vL8RQ6ZQGDi2CTPwXc4-140" value="" style="shape=tableRow;horizontal=0;startSize=0;swimlaneHead=0;swimlaneBody=0;collapsible=0;dropTarget=0;points=[[0,0.5],[1,0.5]];portConstraint=eastwest;top=0;left=0;right=0;bottom=0;swimlaneFillColor=none;" parent="9vL8RQ6ZQGDi2CTPwXc4-136" vertex="1">
          <mxGeometry y="30" width="180" height="30" as="geometry" />
        </mxCell>
        <mxCell id="9vL8RQ6ZQGDi2CTPwXc4-141" value="PK" style="shape=partialRectangle;connectable=0;top=0;left=0;bottom=0;right=0;editable=1;overflow=hidden;swimlaneFillColor=none;fillColor=#b0e3e6;strokeColor=#0e8088;" parent="9vL8RQ6ZQGDi2CTPwXc4-140" vertex="1">
          <mxGeometry width="30" height="30" as="geometry">
            <mxRectangle width="30" height="30" as="alternateBounds" />
          </mxGeometry>
        </mxCell>
        <mxCell id="9vL8RQ6ZQGDi2CTPwXc4-142" value="EMPLOYEE_ID" style="shape=partialRectangle;connectable=0;top=0;left=0;bottom=0;right=0;align=left;spacingLeft=6;overflow=hidden;swimlaneFillColor=none;fillColor=#b0e3e6;strokeColor=#0e8088;" parent="9vL8RQ6ZQGDi2CTPwXc4-140" vertex="1">
          <mxGeometry x="30" width="150" height="30" as="geometry">
            <mxRectangle width="150" height="30" as="alternateBounds" />
          </mxGeometry>
        </mxCell>
        <mxCell id="9vL8RQ6ZQGDi2CTPwXc4-143" value="" style="shape=tableRow;horizontal=0;startSize=0;swimlaneHead=0;swimlaneBody=0;collapsible=0;dropTarget=0;points=[[0,0.5],[1,0.5]];portConstraint=eastwest;top=0;left=0;right=0;bottom=0;swimlaneFillColor=none;" parent="9vL8RQ6ZQGDi2CTPwXc4-136" vertex="1">
          <mxGeometry y="60" width="180" height="30" as="geometry" />
        </mxCell>
        <mxCell id="9vL8RQ6ZQGDi2CTPwXc4-144" value="" style="shape=partialRectangle;connectable=0;top=0;left=0;bottom=0;right=0;editable=1;overflow=hidden;swimlaneFillColor=none;" parent="9vL8RQ6ZQGDi2CTPwXc4-143" vertex="1">
          <mxGeometry width="30" height="30" as="geometry">
            <mxRectangle width="30" height="30" as="alternateBounds" />
          </mxGeometry>
        </mxCell>
        <mxCell id="9vL8RQ6ZQGDi2CTPwXc4-145" value="FIRST_NAME" style="shape=partialRectangle;connectable=0;top=0;left=0;bottom=0;right=0;align=left;spacingLeft=6;overflow=hidden;swimlaneFillColor=none;" parent="9vL8RQ6ZQGDi2CTPwXc4-143" vertex="1">
          <mxGeometry x="30" width="150" height="30" as="geometry">
            <mxRectangle width="150" height="30" as="alternateBounds" />
          </mxGeometry>
        </mxCell>
        <mxCell id="9vL8RQ6ZQGDi2CTPwXc4-146" value="" style="shape=tableRow;horizontal=0;startSize=0;swimlaneHead=0;swimlaneBody=0;collapsible=0;dropTarget=0;points=[[0,0.5],[1,0.5]];portConstraint=eastwest;top=0;left=0;right=0;bottom=0;swimlaneFillColor=none;" parent="9vL8RQ6ZQGDi2CTPwXc4-136" vertex="1">
          <mxGeometry y="90" width="180" height="30" as="geometry" />
        </mxCell>
        <mxCell id="9vL8RQ6ZQGDi2CTPwXc4-147" value="" style="shape=partialRectangle;connectable=0;top=0;left=0;bottom=0;right=0;editable=1;overflow=hidden;swimlaneFillColor=none;" parent="9vL8RQ6ZQGDi2CTPwXc4-146" vertex="1">
          <mxGeometry width="30" height="30" as="geometry">
            <mxRectangle width="30" height="30" as="alternateBounds" />
          </mxGeometry>
        </mxCell>
        <mxCell id="9vL8RQ6ZQGDi2CTPwXc4-148" value="LAST_NAME" style="shape=partialRectangle;connectable=0;top=0;left=0;bottom=0;right=0;align=left;spacingLeft=6;overflow=hidden;swimlaneFillColor=none;" parent="9vL8RQ6ZQGDi2CTPwXc4-146" vertex="1">
          <mxGeometry x="30" width="150" height="30" as="geometry">
            <mxRectangle width="150" height="30" as="alternateBounds" />
          </mxGeometry>
        </mxCell>
        <mxCell id="9vL8RQ6ZQGDi2CTPwXc4-149" value="" style="shape=tableRow;horizontal=0;startSize=0;swimlaneHead=0;swimlaneBody=0;collapsible=0;dropTarget=0;points=[[0,0.5],[1,0.5]];portConstraint=eastwest;top=0;left=0;right=0;bottom=0;swimlaneFillColor=none;" parent="9vL8RQ6ZQGDi2CTPwXc4-136" vertex="1">
          <mxGeometry y="120" width="180" height="30" as="geometry" />
        </mxCell>
        <mxCell id="9vL8RQ6ZQGDi2CTPwXc4-150" value="" style="shape=partialRectangle;connectable=0;top=0;left=0;bottom=0;right=0;editable=1;overflow=hidden;swimlaneFillColor=none;" parent="9vL8RQ6ZQGDi2CTPwXc4-149" vertex="1">
          <mxGeometry width="30" height="30" as="geometry">
            <mxRectangle width="30" height="30" as="alternateBounds" />
          </mxGeometry>
        </mxCell>
        <mxCell id="9vL8RQ6ZQGDi2CTPwXc4-151" value="EMAIL" style="shape=partialRectangle;connectable=0;top=0;left=0;bottom=0;right=0;align=left;spacingLeft=6;overflow=hidden;swimlaneFillColor=none;" parent="9vL8RQ6ZQGDi2CTPwXc4-149" vertex="1">
          <mxGeometry x="30" width="150" height="30" as="geometry">
            <mxRectangle width="150" height="30" as="alternateBounds" />
          </mxGeometry>
        </mxCell>
        <mxCell id="9vL8RQ6ZQGDi2CTPwXc4-152" value="" style="shape=tableRow;horizontal=0;startSize=0;swimlaneHead=0;swimlaneBody=0;collapsible=0;dropTarget=0;points=[[0,0.5],[1,0.5]];portConstraint=eastwest;top=0;left=0;right=0;bottom=0;swimlaneFillColor=none;" parent="9vL8RQ6ZQGDi2CTPwXc4-136" vertex="1">
          <mxGeometry y="150" width="180" height="30" as="geometry" />
        </mxCell>
        <mxCell id="9vL8RQ6ZQGDi2CTPwXc4-153" value="" style="shape=partialRectangle;connectable=0;top=0;left=0;bottom=0;right=0;editable=1;overflow=hidden;swimlaneFillColor=none;" parent="9vL8RQ6ZQGDi2CTPwXc4-152" vertex="1">
          <mxGeometry width="30" height="30" as="geometry">
            <mxRectangle width="30" height="30" as="alternateBounds" />
          </mxGeometry>
        </mxCell>
        <mxCell id="9vL8RQ6ZQGDi2CTPwXc4-154" value="PHONE_NUMBER" style="shape=partialRectangle;connectable=0;top=0;left=0;bottom=0;right=0;align=left;spacingLeft=6;overflow=hidden;swimlaneFillColor=none;" parent="9vL8RQ6ZQGDi2CTPwXc4-152" vertex="1">
          <mxGeometry x="30" width="150" height="30" as="geometry">
            <mxRectangle width="150" height="30" as="alternateBounds" />
          </mxGeometry>
        </mxCell>
        <mxCell id="9vL8RQ6ZQGDi2CTPwXc4-155" value="" style="shape=tableRow;horizontal=0;startSize=0;swimlaneHead=0;swimlaneBody=0;collapsible=0;dropTarget=0;points=[[0,0.5],[1,0.5]];portConstraint=eastwest;top=0;left=0;right=0;bottom=0;swimlaneFillColor=none;" parent="9vL8RQ6ZQGDi2CTPwXc4-136" vertex="1">
          <mxGeometry y="180" width="180" height="30" as="geometry" />
        </mxCell>
        <mxCell id="9vL8RQ6ZQGDi2CTPwXc4-156" value="" style="shape=partialRectangle;connectable=0;top=0;left=0;bottom=0;right=0;editable=1;overflow=hidden;swimlaneFillColor=none;" parent="9vL8RQ6ZQGDi2CTPwXc4-155" vertex="1">
          <mxGeometry width="30" height="30" as="geometry">
            <mxRectangle width="30" height="30" as="alternateBounds" />
          </mxGeometry>
        </mxCell>
        <mxCell id="9vL8RQ6ZQGDi2CTPwXc4-157" value="HIRE_DATE" style="shape=partialRectangle;connectable=0;top=0;left=0;bottom=0;right=0;align=left;spacingLeft=6;overflow=hidden;swimlaneFillColor=none;" parent="9vL8RQ6ZQGDi2CTPwXc4-155" vertex="1">
          <mxGeometry x="30" width="150" height="30" as="geometry">
            <mxRectangle width="150" height="30" as="alternateBounds" />
          </mxGeometry>
        </mxCell>
        <mxCell id="9vL8RQ6ZQGDi2CTPwXc4-158" value="" style="shape=tableRow;horizontal=0;startSize=0;swimlaneHead=0;swimlaneBody=0;collapsible=0;dropTarget=0;points=[[0,0.5],[1,0.5]];portConstraint=eastwest;top=0;left=0;right=0;bottom=0;swimlaneFillColor=none;" parent="9vL8RQ6ZQGDi2CTPwXc4-136" vertex="1">
          <mxGeometry y="210" width="180" height="30" as="geometry" />
        </mxCell>
        <mxCell id="9vL8RQ6ZQGDi2CTPwXc4-159" value="" style="shape=partialRectangle;connectable=0;top=0;left=0;bottom=0;right=0;editable=1;overflow=hidden;swimlaneFillColor=none;" parent="9vL8RQ6ZQGDi2CTPwXc4-158" vertex="1">
          <mxGeometry width="30" height="30" as="geometry">
            <mxRectangle width="30" height="30" as="alternateBounds" />
          </mxGeometry>
        </mxCell>
        <mxCell id="9vL8RQ6ZQGDi2CTPwXc4-160" value="JOB_ID" style="shape=partialRectangle;connectable=0;top=0;left=0;bottom=0;right=0;align=left;spacingLeft=6;overflow=hidden;swimlaneFillColor=none;" parent="9vL8RQ6ZQGDi2CTPwXc4-158" vertex="1">
          <mxGeometry x="30" width="150" height="30" as="geometry">
            <mxRectangle width="150" height="30" as="alternateBounds" />
          </mxGeometry>
        </mxCell>
        <mxCell id="9vL8RQ6ZQGDi2CTPwXc4-161" value="" style="shape=tableRow;horizontal=0;startSize=0;swimlaneHead=0;swimlaneBody=0;collapsible=0;dropTarget=0;points=[[0,0.5],[1,0.5]];portConstraint=eastwest;top=0;left=0;right=0;bottom=0;swimlaneFillColor=none;" parent="9vL8RQ6ZQGDi2CTPwXc4-136" vertex="1">
          <mxGeometry y="240" width="180" height="30" as="geometry" />
        </mxCell>
        <mxCell id="9vL8RQ6ZQGDi2CTPwXc4-162" value="" style="shape=partialRectangle;connectable=0;top=0;left=0;bottom=0;right=0;editable=1;overflow=hidden;swimlaneFillColor=none;" parent="9vL8RQ6ZQGDi2CTPwXc4-161" vertex="1">
          <mxGeometry width="30" height="30" as="geometry">
            <mxRectangle width="30" height="30" as="alternateBounds" />
          </mxGeometry>
        </mxCell>
        <mxCell id="9vL8RQ6ZQGDi2CTPwXc4-163" value="SALARY" style="shape=partialRectangle;connectable=0;top=0;left=0;bottom=0;right=0;align=left;spacingLeft=6;overflow=hidden;swimlaneFillColor=none;" parent="9vL8RQ6ZQGDi2CTPwXc4-161" vertex="1">
          <mxGeometry x="30" width="150" height="30" as="geometry">
            <mxRectangle width="150" height="30" as="alternateBounds" />
          </mxGeometry>
        </mxCell>
        <mxCell id="9vL8RQ6ZQGDi2CTPwXc4-164" value="" style="shape=tableRow;horizontal=0;startSize=0;swimlaneHead=0;swimlaneBody=0;collapsible=0;dropTarget=0;points=[[0,0.5],[1,0.5]];portConstraint=eastwest;top=0;left=0;right=0;bottom=0;swimlaneFillColor=none;" parent="9vL8RQ6ZQGDi2CTPwXc4-136" vertex="1">
          <mxGeometry y="270" width="180" height="30" as="geometry" />
        </mxCell>
        <mxCell id="9vL8RQ6ZQGDi2CTPwXc4-165" value="" style="shape=partialRectangle;connectable=0;top=0;left=0;bottom=0;right=0;editable=1;overflow=hidden;swimlaneFillColor=none;" parent="9vL8RQ6ZQGDi2CTPwXc4-164" vertex="1">
          <mxGeometry width="30" height="30" as="geometry">
            <mxRectangle width="30" height="30" as="alternateBounds" />
          </mxGeometry>
        </mxCell>
        <mxCell id="9vL8RQ6ZQGDi2CTPwXc4-166" value="COMMISSION_PCT" style="shape=partialRectangle;connectable=0;top=0;left=0;bottom=0;right=0;align=left;spacingLeft=6;overflow=hidden;swimlaneFillColor=none;" parent="9vL8RQ6ZQGDi2CTPwXc4-164" vertex="1">
          <mxGeometry x="30" width="150" height="30" as="geometry">
            <mxRectangle width="150" height="30" as="alternateBounds" />
          </mxGeometry>
        </mxCell>
        <mxCell id="9vL8RQ6ZQGDi2CTPwXc4-167" value="" style="shape=tableRow;horizontal=0;startSize=0;swimlaneHead=0;swimlaneBody=0;collapsible=0;dropTarget=0;points=[[0,0.5],[1,0.5]];portConstraint=eastwest;top=0;left=0;right=0;bottom=0;swimlaneFillColor=none;" parent="9vL8RQ6ZQGDi2CTPwXc4-136" vertex="1">
          <mxGeometry y="300" width="180" height="30" as="geometry" />
        </mxCell>
        <mxCell id="9vL8RQ6ZQGDi2CTPwXc4-168" value="" style="shape=partialRectangle;connectable=0;top=0;left=0;bottom=0;right=0;editable=1;overflow=hidden;swimlaneFillColor=none;" parent="9vL8RQ6ZQGDi2CTPwXc4-167" vertex="1">
          <mxGeometry width="30" height="30" as="geometry">
            <mxRectangle width="30" height="30" as="alternateBounds" />
          </mxGeometry>
        </mxCell>
        <mxCell id="9vL8RQ6ZQGDi2CTPwXc4-169" value="MANAGER_ID" style="shape=partialRectangle;connectable=0;top=0;left=0;bottom=0;right=0;align=left;spacingLeft=6;overflow=hidden;swimlaneFillColor=none;" parent="9vL8RQ6ZQGDi2CTPwXc4-167" vertex="1">
          <mxGeometry x="30" width="150" height="30" as="geometry">
            <mxRectangle width="150" height="30" as="alternateBounds" />
          </mxGeometry>
        </mxCell>
        <mxCell id="9vL8RQ6ZQGDi2CTPwXc4-170" value="" style="shape=tableRow;horizontal=0;startSize=0;swimlaneHead=0;swimlaneBody=0;collapsible=0;dropTarget=0;points=[[0,0.5],[1,0.5]];portConstraint=eastwest;top=0;left=0;right=0;bottom=0;swimlaneFillColor=none;" parent="9vL8RQ6ZQGDi2CTPwXc4-136" vertex="1">
          <mxGeometry y="330" width="180" height="30" as="geometry" />
        </mxCell>
        <mxCell id="9vL8RQ6ZQGDi2CTPwXc4-171" value="" style="shape=partialRectangle;connectable=0;top=0;left=0;bottom=0;right=0;editable=1;overflow=hidden;swimlaneFillColor=none;" parent="9vL8RQ6ZQGDi2CTPwXc4-170" vertex="1">
          <mxGeometry width="30" height="30" as="geometry">
            <mxRectangle width="30" height="30" as="alternateBounds" />
          </mxGeometry>
        </mxCell>
        <mxCell id="9vL8RQ6ZQGDi2CTPwXc4-172" value="DEPARTMENT_ID" style="shape=partialRectangle;connectable=0;top=0;left=0;bottom=0;right=0;align=left;spacingLeft=6;overflow=hidden;swimlaneFillColor=none;" parent="9vL8RQ6ZQGDi2CTPwXc4-170" vertex="1">
          <mxGeometry x="30" width="150" height="30" as="geometry">
            <mxRectangle width="150" height="30" as="alternateBounds" />
          </mxGeometry>
        </mxCell>
        <mxCell id="9vL8RQ6ZQGDi2CTPwXc4-173" value="JOB HISTORY" style="shape=table;startSize=30;container=1;collapsible=1;childLayout=tableLayout;fixedRows=1;rowLines=0;fontStyle=1;align=center;resizeLast=1;swimlaneFillColor=none;fillColor=#bac8d3;strokeColor=#23445d;" parent="1" vertex="1">
          <mxGeometry x="800" y="560" width="180" height="180" as="geometry" />
        </mxCell>
        <mxCell id="9vL8RQ6ZQGDi2CTPwXc4-177" value="" style="shape=tableRow;horizontal=0;startSize=0;swimlaneHead=0;swimlaneBody=0;collapsible=0;dropTarget=0;points=[[0,0.5],[1,0.5]];portConstraint=eastwest;top=0;left=0;right=0;bottom=0;swimlaneFillColor=none;" parent="9vL8RQ6ZQGDi2CTPwXc4-173" vertex="1">
          <mxGeometry y="30" width="180" height="30" as="geometry" />
        </mxCell>
        <mxCell id="9vL8RQ6ZQGDi2CTPwXc4-178" value="PK" style="shape=partialRectangle;connectable=0;top=0;left=0;bottom=0;right=0;editable=1;overflow=hidden;swimlaneFillColor=none;fillColor=#b0e3e6;strokeColor=#0e8088;" parent="9vL8RQ6ZQGDi2CTPwXc4-177" vertex="1">
          <mxGeometry width="30" height="30" as="geometry">
            <mxRectangle width="30" height="30" as="alternateBounds" />
          </mxGeometry>
        </mxCell>
        <mxCell id="9vL8RQ6ZQGDi2CTPwXc4-179" value="EMPLOYEE_ID" style="shape=partialRectangle;connectable=0;top=0;left=0;bottom=0;right=0;align=left;spacingLeft=6;overflow=hidden;swimlaneFillColor=none;fillColor=#b0e3e6;strokeColor=#0e8088;" parent="9vL8RQ6ZQGDi2CTPwXc4-177" vertex="1">
          <mxGeometry x="30" width="150" height="30" as="geometry">
            <mxRectangle width="150" height="30" as="alternateBounds" />
          </mxGeometry>
        </mxCell>
        <mxCell id="9vL8RQ6ZQGDi2CTPwXc4-180" value="" style="shape=tableRow;horizontal=0;startSize=0;swimlaneHead=0;swimlaneBody=0;collapsible=0;dropTarget=0;points=[[0,0.5],[1,0.5]];portConstraint=eastwest;top=0;left=0;right=0;bottom=0;swimlaneFillColor=none;" parent="9vL8RQ6ZQGDi2CTPwXc4-173" vertex="1">
          <mxGeometry y="60" width="180" height="30" as="geometry" />
        </mxCell>
        <mxCell id="9vL8RQ6ZQGDi2CTPwXc4-181" value="" style="shape=partialRectangle;connectable=0;top=0;left=0;bottom=0;right=0;editable=1;overflow=hidden;swimlaneFillColor=none;fillColor=#b0e3e6;strokeColor=#0e8088;" parent="9vL8RQ6ZQGDi2CTPwXc4-180" vertex="1">
          <mxGeometry width="30" height="30" as="geometry">
            <mxRectangle width="30" height="30" as="alternateBounds" />
          </mxGeometry>
        </mxCell>
        <mxCell id="9vL8RQ6ZQGDi2CTPwXc4-182" value="START_DATE" style="shape=partialRectangle;connectable=0;top=0;left=0;bottom=0;right=0;align=left;spacingLeft=6;overflow=hidden;swimlaneFillColor=none;fillColor=#b0e3e6;strokeColor=#0e8088;" parent="9vL8RQ6ZQGDi2CTPwXc4-180" vertex="1">
          <mxGeometry x="30" width="150" height="30" as="geometry">
            <mxRectangle width="150" height="30" as="alternateBounds" />
          </mxGeometry>
        </mxCell>
        <mxCell id="9vL8RQ6ZQGDi2CTPwXc4-183" value="" style="shape=tableRow;horizontal=0;startSize=0;swimlaneHead=0;swimlaneBody=0;collapsible=0;dropTarget=0;points=[[0,0.5],[1,0.5]];portConstraint=eastwest;top=0;left=0;right=0;bottom=0;swimlaneFillColor=none;" parent="9vL8RQ6ZQGDi2CTPwXc4-173" vertex="1">
          <mxGeometry y="90" width="180" height="30" as="geometry" />
        </mxCell>
        <mxCell id="9vL8RQ6ZQGDi2CTPwXc4-184" value="" style="shape=partialRectangle;connectable=0;top=0;left=0;bottom=0;right=0;editable=1;overflow=hidden;swimlaneFillColor=none;" parent="9vL8RQ6ZQGDi2CTPwXc4-183" vertex="1">
          <mxGeometry width="30" height="30" as="geometry">
            <mxRectangle width="30" height="30" as="alternateBounds" />
          </mxGeometry>
        </mxCell>
        <mxCell id="9vL8RQ6ZQGDi2CTPwXc4-185" value="END_DATE" style="shape=partialRectangle;connectable=0;top=0;left=0;bottom=0;right=0;align=left;spacingLeft=6;overflow=hidden;swimlaneFillColor=none;" parent="9vL8RQ6ZQGDi2CTPwXc4-183" vertex="1">
          <mxGeometry x="30" width="150" height="30" as="geometry">
            <mxRectangle width="150" height="30" as="alternateBounds" />
          </mxGeometry>
        </mxCell>
        <mxCell id="9vL8RQ6ZQGDi2CTPwXc4-186" value="" style="shape=tableRow;horizontal=0;startSize=0;swimlaneHead=0;swimlaneBody=0;collapsible=0;dropTarget=0;points=[[0,0.5],[1,0.5]];portConstraint=eastwest;top=0;left=0;right=0;bottom=0;swimlaneFillColor=none;" parent="9vL8RQ6ZQGDi2CTPwXc4-173" vertex="1">
          <mxGeometry y="120" width="180" height="30" as="geometry" />
        </mxCell>
        <mxCell id="9vL8RQ6ZQGDi2CTPwXc4-187" value="" style="shape=partialRectangle;connectable=0;top=0;left=0;bottom=0;right=0;editable=1;overflow=hidden;swimlaneFillColor=none;" parent="9vL8RQ6ZQGDi2CTPwXc4-186" vertex="1">
          <mxGeometry width="30" height="30" as="geometry">
            <mxRectangle width="30" height="30" as="alternateBounds" />
          </mxGeometry>
        </mxCell>
        <mxCell id="9vL8RQ6ZQGDi2CTPwXc4-188" value="JOB_ID" style="shape=partialRectangle;connectable=0;top=0;left=0;bottom=0;right=0;align=left;spacingLeft=6;overflow=hidden;swimlaneFillColor=none;" parent="9vL8RQ6ZQGDi2CTPwXc4-186" vertex="1">
          <mxGeometry x="30" width="150" height="30" as="geometry">
            <mxRectangle width="150" height="30" as="alternateBounds" />
          </mxGeometry>
        </mxCell>
        <mxCell id="9vL8RQ6ZQGDi2CTPwXc4-189" value="" style="shape=tableRow;horizontal=0;startSize=0;swimlaneHead=0;swimlaneBody=0;collapsible=0;dropTarget=0;points=[[0,0.5],[1,0.5]];portConstraint=eastwest;top=0;left=0;right=0;bottom=0;swimlaneFillColor=none;" parent="9vL8RQ6ZQGDi2CTPwXc4-173" vertex="1">
          <mxGeometry y="150" width="180" height="30" as="geometry" />
        </mxCell>
        <mxCell id="9vL8RQ6ZQGDi2CTPwXc4-190" value="" style="shape=partialRectangle;connectable=0;top=0;left=0;bottom=0;right=0;editable=1;overflow=hidden;swimlaneFillColor=none;" parent="9vL8RQ6ZQGDi2CTPwXc4-189" vertex="1">
          <mxGeometry width="30" height="30" as="geometry">
            <mxRectangle width="30" height="30" as="alternateBounds" />
          </mxGeometry>
        </mxCell>
        <mxCell id="9vL8RQ6ZQGDi2CTPwXc4-191" value="DEPARTMENT_ID" style="shape=partialRectangle;connectable=0;top=0;left=0;bottom=0;right=0;align=left;spacingLeft=6;overflow=hidden;swimlaneFillColor=none;" parent="9vL8RQ6ZQGDi2CTPwXc4-189" vertex="1">
          <mxGeometry x="30" width="150" height="30" as="geometry">
            <mxRectangle width="150" height="30" as="alternateBounds" />
          </mxGeometry>
        </mxCell>
        <mxCell id="9vL8RQ6ZQGDi2CTPwXc4-193" value="COUNTRIES" style="shape=table;startSize=30;container=1;collapsible=1;childLayout=tableLayout;fixedRows=1;rowLines=0;fontStyle=1;align=center;resizeLast=1;swimlaneFillColor=none;fillColor=#bac8d3;strokeColor=#23445d;" parent="1" vertex="1">
          <mxGeometry x="120" y="500" width="180" height="120" as="geometry" />
        </mxCell>
        <mxCell id="9vL8RQ6ZQGDi2CTPwXc4-197" value="" style="shape=tableRow;horizontal=0;startSize=0;swimlaneHead=0;swimlaneBody=0;collapsible=0;dropTarget=0;points=[[0,0.5],[1,0.5]];portConstraint=eastwest;top=0;left=0;right=0;bottom=0;swimlaneFillColor=none;" parent="9vL8RQ6ZQGDi2CTPwXc4-193" vertex="1">
          <mxGeometry y="30" width="180" height="30" as="geometry" />
        </mxCell>
        <mxCell id="9vL8RQ6ZQGDi2CTPwXc4-198" value="PK" style="shape=partialRectangle;connectable=0;top=0;left=0;bottom=0;right=0;editable=1;overflow=hidden;swimlaneFillColor=none;fillColor=#b0e3e6;strokeColor=#0e8088;" parent="9vL8RQ6ZQGDi2CTPwXc4-197" vertex="1">
          <mxGeometry width="30" height="30" as="geometry">
            <mxRectangle width="30" height="30" as="alternateBounds" />
          </mxGeometry>
        </mxCell>
        <mxCell id="9vL8RQ6ZQGDi2CTPwXc4-199" value="COUNTRY_ID" style="shape=partialRectangle;connectable=0;top=0;left=0;bottom=0;right=0;align=left;spacingLeft=6;overflow=hidden;swimlaneFillColor=none;fillColor=#b0e3e6;strokeColor=#0e8088;" parent="9vL8RQ6ZQGDi2CTPwXc4-197" vertex="1">
          <mxGeometry x="30" width="150" height="30" as="geometry">
            <mxRectangle width="150" height="30" as="alternateBounds" />
          </mxGeometry>
        </mxCell>
        <mxCell id="9vL8RQ6ZQGDi2CTPwXc4-200" value="" style="shape=tableRow;horizontal=0;startSize=0;swimlaneHead=0;swimlaneBody=0;collapsible=0;dropTarget=0;points=[[0,0.5],[1,0.5]];portConstraint=eastwest;top=0;left=0;right=0;bottom=0;swimlaneFillColor=none;" parent="9vL8RQ6ZQGDi2CTPwXc4-193" vertex="1">
          <mxGeometry y="60" width="180" height="30" as="geometry" />
        </mxCell>
        <mxCell id="9vL8RQ6ZQGDi2CTPwXc4-201" value="" style="shape=partialRectangle;connectable=0;top=0;left=0;bottom=0;right=0;editable=1;overflow=hidden;swimlaneFillColor=none;" parent="9vL8RQ6ZQGDi2CTPwXc4-200" vertex="1">
          <mxGeometry width="30" height="30" as="geometry">
            <mxRectangle width="30" height="30" as="alternateBounds" />
          </mxGeometry>
        </mxCell>
        <mxCell id="9vL8RQ6ZQGDi2CTPwXc4-202" value="COUNTRY_NAME" style="shape=partialRectangle;connectable=0;top=0;left=0;bottom=0;right=0;align=left;spacingLeft=6;overflow=hidden;swimlaneFillColor=none;" parent="9vL8RQ6ZQGDi2CTPwXc4-200" vertex="1">
          <mxGeometry x="30" width="150" height="30" as="geometry">
            <mxRectangle width="150" height="30" as="alternateBounds" />
          </mxGeometry>
        </mxCell>
        <mxCell id="9vL8RQ6ZQGDi2CTPwXc4-203" value="" style="shape=tableRow;horizontal=0;startSize=0;swimlaneHead=0;swimlaneBody=0;collapsible=0;dropTarget=0;points=[[0,0.5],[1,0.5]];portConstraint=eastwest;top=0;left=0;right=0;bottom=0;swimlaneFillColor=none;" parent="9vL8RQ6ZQGDi2CTPwXc4-193" vertex="1">
          <mxGeometry y="90" width="180" height="30" as="geometry" />
        </mxCell>
        <mxCell id="9vL8RQ6ZQGDi2CTPwXc4-204" value="" style="shape=partialRectangle;connectable=0;top=0;left=0;bottom=0;right=0;editable=1;overflow=hidden;swimlaneFillColor=none;" parent="9vL8RQ6ZQGDi2CTPwXc4-203" vertex="1">
          <mxGeometry width="30" height="30" as="geometry">
            <mxRectangle width="30" height="30" as="alternateBounds" />
          </mxGeometry>
        </mxCell>
        <mxCell id="9vL8RQ6ZQGDi2CTPwXc4-205" value="REGION_ID" style="shape=partialRectangle;connectable=0;top=0;left=0;bottom=0;right=0;align=left;spacingLeft=6;overflow=hidden;swimlaneFillColor=none;" parent="9vL8RQ6ZQGDi2CTPwXc4-203" vertex="1">
          <mxGeometry x="30" width="150" height="30" as="geometry">
            <mxRectangle width="150" height="30" as="alternateBounds" />
          </mxGeometry>
        </mxCell>
        <mxCell id="Prwd3wWh5Zi84yeX747r-3" style="edgeStyle=orthogonalEdgeStyle;rounded=0;orthogonalLoop=1;jettySize=auto;html=1;exitX=0;exitY=0.5;exitDx=0;exitDy=0;entryX=0;entryY=0.5;entryDx=0;entryDy=0;" edge="1" parent="1" source="9vL8RQ6ZQGDi2CTPwXc4-197" target="9vL8RQ6ZQGDi2CTPwXc4-88">
          <mxGeometry relative="1" as="geometry" />
        </mxCell>
        <mxCell id="Prwd3wWh5Zi84yeX747r-5" style="edgeStyle=orthogonalEdgeStyle;rounded=0;orthogonalLoop=1;jettySize=auto;html=1;exitX=1;exitY=0.5;exitDx=0;exitDy=0;" edge="1" parent="1" source="9vL8RQ6ZQGDi2CTPwXc4-73" target="9vL8RQ6ZQGDi2CTPwXc4-104">
          <mxGeometry relative="1" as="geometry" />
        </mxCell>
        <mxCell id="Prwd3wWh5Zi84yeX747r-8" style="edgeStyle=orthogonalEdgeStyle;rounded=0;orthogonalLoop=1;jettySize=auto;html=1;exitX=1;exitY=0.5;exitDx=0;exitDy=0;" edge="1" parent="1" source="9vL8RQ6ZQGDi2CTPwXc4-95">
          <mxGeometry relative="1" as="geometry">
            <mxPoint x="980" y="730" as="targetPoint" />
            <Array as="points">
              <mxPoint x="680" y="205" />
              <mxPoint x="680" y="530" />
              <mxPoint x="1040" y="530" />
              <mxPoint x="1040" y="730" />
            </Array>
          </mxGeometry>
        </mxCell>
        <mxCell id="Prwd3wWh5Zi84yeX747r-9" style="edgeStyle=orthogonalEdgeStyle;rounded=0;orthogonalLoop=1;jettySize=auto;html=1;exitX=0;exitY=0.5;exitDx=0;exitDy=0;" edge="1" parent="1" source="9vL8RQ6ZQGDi2CTPwXc4-95" target="9vL8RQ6ZQGDi2CTPwXc4-170">
          <mxGeometry relative="1" as="geometry">
            <Array as="points">
              <mxPoint x="440" y="205" />
              <mxPoint x="440" y="100" />
              <mxPoint x="760" y="100" />
              <mxPoint x="760" y="485" />
            </Array>
          </mxGeometry>
        </mxCell>
        <mxCell id="Prwd3wWh5Zi84yeX747r-11" style="edgeStyle=orthogonalEdgeStyle;rounded=0;orthogonalLoop=1;jettySize=auto;html=1;exitX=0;exitY=0.5;exitDx=0;exitDy=0;entryX=0;entryY=0.5;entryDx=0;entryDy=0;" edge="1" parent="1" source="9vL8RQ6ZQGDi2CTPwXc4-111" target="9vL8RQ6ZQGDi2CTPwXc4-186">
          <mxGeometry relative="1" as="geometry" />
        </mxCell>
        <mxCell id="Prwd3wWh5Zi84yeX747r-12" style="edgeStyle=orthogonalEdgeStyle;rounded=0;orthogonalLoop=1;jettySize=auto;html=1;exitX=1;exitY=0.5;exitDx=0;exitDy=0;entryX=0;entryY=0.5;entryDx=0;entryDy=0;" edge="1" parent="1" source="9vL8RQ6ZQGDi2CTPwXc4-111" target="9vL8RQ6ZQGDi2CTPwXc4-158">
          <mxGeometry relative="1" as="geometry" />
        </mxCell>
        <mxCell id="Prwd3wWh5Zi84yeX747r-13" style="edgeStyle=orthogonalEdgeStyle;rounded=0;orthogonalLoop=1;jettySize=auto;html=1;exitX=0;exitY=0.5;exitDx=0;exitDy=0;entryX=1;entryY=0.75;entryDx=0;entryDy=0;" edge="1" parent="1" source="9vL8RQ6ZQGDi2CTPwXc4-140" target="9vL8RQ6ZQGDi2CTPwXc4-91">
          <mxGeometry relative="1" as="geometry" />
        </mxCell>
      </root>
    </mxGraphModel>
  </diagram>
</mxfile>
